<svg xmlns="http://www.w3.org/2000/svg" height="2048" preserveAspectRatio="none" style="display: block;" version="1.1" viewBox="0 0 2048 2048" width="2048">
<style>
  path[fill="rgb(231,228,219)"] { stroke: rgb(231,228,219); stroke-width: 50px; stroke-linejoin: round; }
  path[fill="rgb(220,216,205)"] { stroke: rgb(220,216,205); stroke-width: 50px; stroke-linejoin: round; }
  path[fill="rgb(39,37,35)"] { stroke: rgb(39,37,35); stroke-width: 50px; stroke-linejoin: round; }
  path[fill="rgb(23,22,21)"] { stroke: rgb(23,22,21); stroke-width: 50px; stroke-linejoin: round; }
  path[fill="rgb(141,136,131)"] { stroke: rgb(141,136,131); stroke-width: 50px; stroke-linejoin: round; }
</style>
<path d="M 459.47 726.597 L 461.005 726.241 L 461.807 725.525 L 463.486 725.575 C 462.111 724.993 461.666 724.675 460.385 723.912 C 458.956 720.181 457.648 715.463 460.087 711.881 L 462.786 711.953 L 462.568 710.688 C 460.057 709.178 459.752 709.179 457.838 707.034 L 458.175 704.984 L 461.475 703.576 C 459.473 698.949 455.372 691.161 456.464 686.636 L 458.035 686.686 C 463.226 693.18 465.917 704.396 472.261 713.617 L 474.488 712.465 L 475.714 713.222 C 476.126 716.305 474.717 717.76 473.035 720.479 L 473.19 720.745 C 474.58 724.198 474.648 726.045 473.551 729.619 C 470.985 737.983 475.461 742.419 477.936 749.93 C 478.315 751.154 474.065 757.403 475.836 760.195 C 479.106 760.534 480.831 760.119 483.042 761.786 C 483.36 765.537 482.697 766.426 485.713 768.7 C 491.819 773.304 497.839 778.004 505.146 780.175 L 508.723 779.438 L 509.601 780.303 C 508.077 782.512 508.06 782.679 506.049 784.401 L 507.05 786.077 C 505.411 787.261 475.97 789.427 471.718 786.508 C 465.418 798.489 484.395 808.636 493.753 803.581 L 494.795 804.847 L 494.584 806.96 C 492.892 807.707 492.309 807.971 490.533 808.545 C 488.348 815.603 479.096 813.168 473.347 811.536 C 472.02 814.648 471.338 816.508 470.286 819.731 C 478.265 823.6 494.924 828.176 497.649 832.372 C 497.268 838.979 491.094 838.56 488.584 844.012 L 489.569 845.888 C 492.333 846.319 493.497 845.916 496.267 845.46 C 502.323 848.583 509.081 851.116 512.023 856.777 C 516.563 865.512 527.788 864.547 531.786 868.869 L 531.254 870.35 C 514.538 870.781 483.444 865.14 472.547 868.392 C 474.458 871.932 475.943 875.834 479.318 877.745 C 481.633 877.842 483.289 877.93 485.51 878.597 L 486.413 880.077 C 484.612 882.298 483.835 882.585 481.456 884.145 C 483.08 891.387 519.978 902.976 527.831 905.691 C 534.071 907.847 528.316 911.896 539.496 910.225 L 540.578 911.128 C 536.592 921.712 513.329 915.453 505.724 913.691 C 494.925 926.422 491.104 916.021 483.142 916.185 L 483.106 917.856 C 487.112 920.888 490.898 920.839 490.031 925.434 C 492.197 927.136 493.643 926.98 496.399 927.253 C 499.337 931.229 496.42 931.729 498.375 934.149 C 502.719 939.528 508.18 939.094 509.637 947.143 C 510.924 954.259 518.759 952.799 522.816 958.169 L 523.171 960.164 C 521.168 960.628 520.18 960.954 518.385 961.953 L 517.121 965.399 C 513.724 966.11 476.183 952.583 466.673 953.44 C 467.164 956.911 469.52 957.13 469.851 958.355 C 471.604 965.2 467.95 968.658 475.522 972.789 C 481.935 976.286 478.679 982.834 481.309 986.562 C 485.935 993.117 494.414 993.917 493.905 1003.17 C 500.26 1012.01 522.971 1025.51 523.234 1030.97 C 515.83 1035.63 483.025 1015.1 477.432 1014.83 C 471.416 1018.95 474.828 1028.14 469.589 1032.95 C 467.536 1034.84 468.595 1041.91 468.813 1044.53 C 469.254 1044.87 469.694 1045.21 470.134 1045.55 L 470.384 1047.95 C 469.89 1048.63 469.396 1049.31 468.901 1049.99 C 468.57 1072.56 468.486 1095.42 469.04 1117.97 C 469.109 1118.35 469.177 1118.74 469.246 1119.12 C 469.717 1120.07 470.106 1120.96 470.535 1121.92 C 469.945 1122.79 469.355 1123.65 468.765 1124.52 C 468.531 1185.07 471.376 1279.73 470.32 1336.7 C 464.533 1346.55 458.541 1356.27 452.348 1365.87 C 453.109 1308.55 452.165 1253.18 453.67 1195.53 C 451.103 1194.59 448.813 1195.75 446.039 1196.59 L 444.513 1194.69 C 447.747 1191.41 450.429 1190.07 454.337 1187.7 C 454.92 1179.01 454.523 1169.53 454.35 1160.76 C 448.915 1162.09 444.437 1162.71 438.944 1163.5 C 436.886 1163.74 421.862 1163.54 433.223 1161.55 C 437.009 1160.49 443.347 1159.68 447.411 1159.04 C 450.29 1156.18 454.544 1153.35 452.436 1149.27 C 449.265 1148.75 447.325 1150.08 444.316 1151.43 L 441.905 1149.54 C 445.785 1145.71 449.42 1144.99 454.545 1143.26 L 454.323 1108.51 C 451.871 1105.15 442.763 1091.34 439.096 1091.73 C 436.308 1113.77 420.44 1095.24 407.832 1102.85 C 407.551 1105.13 407.346 1106.05 406.77 1108.29 C 403.082 1110.66 402.79 1109.52 397.33 1108.6 L 396.362 1110 C 397.368 1112.55 398.537 1114.53 398.072 1117.14 L 396.549 1118.1 C 388.859 1115.96 391.733 1105.32 379.475 1116.71 C 377.461 1118.58 371.952 1122.95 369.544 1123.5 C 363.635 1120.79 369.927 1117 357.302 1117.87 C 352.158 1118.23 341.424 1113.42 337.398 1109.71 L 337.874 1108.61 C 342.653 1107.95 345.892 1109.5 350.558 1111 C 352.756 1109.03 354.63 1107.46 356.93 1105.6 C 362.025 1104.32 365.593 1106.42 368.353 1104.7 C 369.317 1101.89 369.307 1101.54 370.934 1099.12 C 375.923 1097.56 377.15 1097.47 380.186 1093.16 C 377.832 1090.41 375.356 1094.94 369.67 1090.71 L 369.793 1089.07 C 371.412 1087.21 373.491 1085.03 375.496 1083.84 C 381.016 1080.57 381.994 1077.13 388.336 1078.43 C 399.468 1080.71 397.304 1076.28 402.878 1069.8 C 405.061 1068.86 407 1068.02 408.695 1067.29 L 417.746 1071.04 C 432.664 1063.53 437.117 1058.66 446.51 1044.96 C 439.78 1042.77 437.519 1042.48 430.58 1041.56 C 431.101 1039.64 435.762 1040.11 438.021 1039.8 C 440.851 1039.67 443.087 1039.25 445.875 1038.83 C 445.521 1027.13 452.684 1025.31 449.088 1045.55 C 450.373 1047.38 450.858 1047.81 452.457 1049.4 L 454.163 1049.02 C 456.457 1042.8 454.528 1029.53 453.855 1022.29 C 436.77 1026.42 431.403 1036.05 413.606 1037.27 C 413.515 1037.28 408.563 1042.8 407.181 1042.48 C 397.368 1040.26 386.263 1033.79 376.461 1033.85 C 374.598 1033.98 374.903 1035.05 371.604 1033.89 L 370.955 1032.05 C 372.289 1029.06 372.35 1029.85 372.514 1026.83 L 369.488 1025.53 L 369.332 1023.39 C 373.18 1019.82 382.761 1021.49 387.903 1021.85 C 391.714 1018.73 398.523 1012.57 402.048 1009.14 C 402.457 1008.75 409.011 1009.13 412.513 1007.02 C 417.641 997.331 417.134 1002.94 426.081 1000.38 C 425.641 1000.5 431.263 995.535 431.59 995.257 C 436.128 996.404 436.725 997.252 440.198 994.533 C 440.664 991.243 440.236 991.848 438.462 988.213 L 439.241 986.605 L 442.534 986.192 C 447.095 982.763 442.533 983.728 446.25 978.761 C 456.749 977.636 457.32 974.53 453.178 964.433 C 447.267 959.275 438.527 972.867 429.766 973.777 C 424.566 974.317 422.973 973.67 417.876 972.718 C 409.251 977.808 399.391 985.556 389.333 991.58 L 388.312 989.578 C 385.458 984.009 380.141 972.336 374.235 970.426 C 373.178 972.659 373.692 973.841 374.125 976.328 L 374.304 977.31 L 373.305 978.682 C 366.939 978.247 362.745 974.345 356.973 973.276 C 350.617 972.098 344.503 973.989 337.897 970.981 L 337.267 969.285 C 339.903 966.791 346.647 967.533 351.178 965.468 C 357.613 962.92 364.287 957.435 370.698 955.183 C 377.545 952.777 391.389 954.333 395.203 945.904 C 393.793 941.768 392.26 942.475 388.277 938.482 C 391.286 932.204 408.535 936.517 414.996 925.567 C 416.393 923.199 418.997 920.905 418.515 916.572 C 415.915 913.991 413.092 914.221 408.921 913.417 C 409.557 910.902 411.227 910.194 413.465 908.566 C 418.139 905.166 417.703 900.722 420.836 895.774 L 422.367 895.933 L 424.916 900.455 L 426.13 900.01 C 428.481 895.525 428.982 892.954 427.823 888.065 C 422.315 880.211 404.752 883.999 394.547 879.4 C 391.403 872.535 387.136 876.871 384.197 867.864 C 385.193 862.54 384.958 868.581 390.849 863.067 C 402.55 860.193 428.029 869.992 438.013 861.749 C 436.08 857.693 433.335 860.613 431.974 855.581 C 434.129 852.193 435.942 850.878 433.482 847.542 C 425.739 846.691 421.676 857.621 399.946 849.12 L 400.617 845.658 C 407.317 840.694 424.145 839.043 432.802 830.799 C 430.584 828.588 429.27 830.652 429.829 826.604 L 430.007 825.163 C 428.128 816.845 415.966 825.434 408.229 817.942 L 408.585 816.508 C 412.116 816.057 413.71 815.409 416.522 812.976 C 424.239 806.299 432.663 805.46 442.415 803.347 L 442.827 802.104 L 439.126 797.911 C 440.343 795.039 443.298 796.816 447.907 792.985 L 447.377 791.491 C 441.39 787.822 424.428 797.413 417.652 795.637 L 416.862 793.705 C 419.842 786.12 433.03 787.613 440.197 781.988 C 441.1 778.625 440.375 779.214 437.905 774.919 L 438.984 773.816 C 441.424 774.289 441.502 774.502 443.872 773.957 C 449.149 769.088 453.32 761.264 456.648 754.91 C 452.207 752.731 446.946 756.663 442.827 754.155 L 443.973 752.886 C 441.805 750.328 436.031 750.684 436.48 748.305 C 439.461 745.792 442.733 751.064 443.384 745.022 C 442.994 743.267 442.417 741.045 442.22 739.295 C 442.187 735.927 441.556 737.202 443.297 734.999 C 455.351 733.78 452.177 735.197 462.753 735.926 L 464.445 730.329 C 461.868 729.891 460.142 729.982 457.566 729.997 L 459.47 726.597 z" fill="rgb(231,228,219)" transform="translate(0,0)"></path>
<path d="M 443.384 745.022 C 445.207 744.985 445.318 744.831 446.801 745.334 C 443.783 750.67 447.893 750.285 443.973 752.886 C 441.805 750.328 436.031 750.684 436.48 748.305 C 439.461 745.792 442.733 751.064 443.384 745.022 z" fill="rgb(220,216,205)" transform="translate(0,0)"></path>
<path d="M 442.22 739.295 C 448.088 741.853 449.248 740.687 453.725 742.035 C 457.933 743.301 447.432 745.229 446.801 745.334 C 445.318 744.831 445.207 744.985 443.384 745.022 C 442.994 743.267 442.417 741.045 442.22 739.295 z" fill="rgb(39,37,35)" transform="translate(0,0)"></path>
<path d="M 445.875 1038.83 C 445.521 1027.13 452.684 1025.31 449.088 1045.55 C 448.298 1041.21 449.982 1039.79 445.875 1038.83 z" fill="rgb(220,216,205)" transform="translate(0,0)"></path>
<path d="M 430.007 825.163 L 430.871 824.44 C 433.477 822.18 438.418 824.868 432.802 830.799 C 430.584 828.588 429.27 830.652 429.829 826.604 L 430.007 825.163 z" fill="rgb(39,37,35)" transform="translate(0,0)"></path>
<path d="M 438.944 1163.5 C 436.886 1163.74 421.862 1163.54 433.223 1161.55 C 435.851 1162.9 436.045 1162.84 438.944 1163.5 z" fill="rgb(220,216,205)" transform="translate(0,0)"></path>
<path d="M 473.19 720.745 C 472.42 721.347 470.907 723.096 469.918 722.026 C 470.14 720.867 470.556 720.658 471.768 720.581 L 473.035 720.479 L 473.19 720.745 z" fill="rgb(39,37,35)" transform="translate(0,0)"></path>
<path d="M 446.813 1053.65 C 450.01 1055.84 451.928 1058.36 454.445 1061.29 C 454.713 1064.86 455.464 1097.84 454.542 1099.66 C 453.433 1100.39 451.187 1096.67 450.773 1096.11 C 446.069 1090.64 440.786 1085.6 436.381 1080.26 C 436.161 1075.11 436.162 1070.4 436.18 1065.26 C 440.08 1061.18 443.092 1057.76 446.813 1053.65 z" fill="rgb(23,22,21)" transform="translate(0,0)"></path>
<path d="M 431.773 1069.94 C 436.379 1080.23 430.213 1081.32 422.055 1079.82 C 415.981 1073.32 422.84 1078.91 429.41 1072.34 L 431.773 1069.94 z" fill="rgb(23,22,21)" transform="translate(0,0)"></path>
<path d="M 1090.47 848.934 C 1100.39 871.121 1110.21 896.575 1119.74 919.332 L 1185.19 1075.77 C 1194.52 1098.07 1203.71 1120.43 1213.28 1142.62 C 1224.38 1168.38 1236.66 1195.72 1262.47 1209.68 C 1238.89 1209.18 1215.31 1209.01 1191.72 1209.17 C 1198.18 1201.54 1201.69 1195.54 1200.62 1185.01 C 1198.61 1165.35 1186.4 1140.45 1178.68 1121.91 L 1154.96 1064.53 C 1152.5 1058.52 1145.56 1042.49 1144.32 1036.74 C 1075.73 1046.77 1008.43 1075.24 978.17 1142 C 978.711 1134.61 979.967 1130.75 972.244 1136.52 L 1077.52 880.811 C 1081.75 870.464 1086.53 859.323 1090.47 848.934 z" fill="rgb(23,22,21)" transform="translate(0,0)"></path>
<path d="M 1090.47 848.934 C 1100.39 871.121 1110.21 896.575 1119.74 919.332 L 1185.19 1075.77 C 1194.52 1098.07 1203.71 1120.43 1213.28 1142.62 C 1224.38 1168.38 1236.66 1195.72 1262.47 1209.68 C 1238.89 1209.18 1215.31 1209.01 1191.72 1209.17 C 1198.18 1201.54 1201.69 1195.54 1200.62 1185.01 C 1198.61 1165.35 1186.4 1140.45 1178.68 1121.91 L 1154.96 1064.53 C 1152.5 1058.52 1145.56 1042.49 1144.32 1036.74 L 1142.81 1033.97 C 1136.05 1020.94 1126.75 996.332 1120.74 981.847 L 1079.94 882.978 L 1077.52 880.811 C 1081.75 870.464 1086.53 859.323 1090.47 848.934 z" fill="rgb(231,228,219)" transform="translate(0,0)"></path>
<path d="M 972.244 1136.52 L 1077.52 880.811 L 1079.94 882.978 C 1063.14 918.925 1045.45 967.135 1029.94 1004.44 C 1013.66 1043.6 991.93 1092.26 977.893 1131.6 C 1012.76 1080.04 1055.07 1052.18 1115.98 1038.11 C 1124.25 1036.2 1135.12 1036.06 1142.81 1033.97 L 1144.32 1036.74 C 1075.73 1046.77 1008.43 1075.24 978.17 1142 C 978.711 1134.61 979.967 1130.75 972.244 1136.52 z" fill="rgb(220,216,205)" transform="translate(0,0)"></path>
<path d="M 784.198 850.41 C 838.288 846.151 875.946 865.674 917.161 897.322 C 909.597 905.152 900.909 915.512 893.599 923.818 C 881.767 900.168 869.258 888.414 846.945 874.351 C 782.539 833.759 694.574 859.898 657.375 925 C 609.265 1009.2 640.246 1137.55 725.841 1185.78 C 760.496 1205.74 801.693 1211.01 840.254 1200.41 C 870.373 1190.41 897.107 1168.78 913.439 1141.62 C 917.249 1135.29 920.483 1119.2 926.751 1116.84 L 927.63 1117.83 C 910.663 1168.81 862.759 1204.95 809.781 1209.39 C 758.726 1213.66 711.384 1205.67 671.07 1172.18 C 634.283 1141.15 611.408 1096.71 607.521 1048.74 C 602.617 990.019 628.488 930.466 673.788 893.029 C 707.762 864.952 741.021 853.852 784.198 850.41 z" fill="rgb(231,228,219)" transform="translate(0,0)"></path>
<path d="M 1300.37 854.072 L 1330.87 854.122 C 1343.48 895.531 1370.72 930.011 1394.73 965.602 L 1450.74 1049.09 L 1452.47 1050.07 C 1452.53 1051.93 1461.17 1067.75 1462.53 1070.77 C 1485.64 1122.21 1480.79 1184.87 1429.03 1215.97 C 1438.84 1205.41 1445.86 1195.99 1450.4 1181.93 C 1462.32 1145.04 1447.23 1095.09 1429.76 1062.28 C 1424.45 1052.33 1411.29 1033.96 1404.58 1024.1 L 1353.78 948.85 C 1342.78 932.625 1327.56 911.548 1318.95 894.46 C 1317.91 895.053 1316.35 895.671 1315.19 896.169 C 1317.35 913.271 1315.84 942.105 1315.83 960.059 L 1315.67 1093.62 C 1315.61 1146.62 1308.16 1184.47 1364.06 1209.64 C 1342.06 1209.18 1320.06 1209.12 1298.06 1209.47 C 1305.7 1197.81 1309.17 1189.02 1310.47 1175.01 C 1312.63 1151.94 1312.15 1128.54 1312.19 1105.4 L 1312.11 993.385 L 1312.09 922.376 C 1312.06 896.986 1315.3 876.061 1300.37 854.072 z" fill="rgb(231,228,219)" transform="translate(0,0)"></path>
<path d="M 1315.19 896.169 C 1315.92 890.918 1315.96 888.946 1318.95 894.46 C 1317.91 895.053 1316.35 895.671 1315.19 896.169 z" fill="rgb(39,37,35)" transform="translate(0,0)"></path>
<path d="M 1592.95 854.043 L 1627.96 854.049 C 1610.84 872.125 1613.98 898.242 1613.98 921.52 L 1614.02 984.288 C 1614.08 1043.28 1613.84 1102.28 1614.18 1161.26 C 1614.29 1179.03 1617.47 1197.05 1631 1209.65 C 1607 1209.19 1583 1209.15 1559 1209.52 C 1595.1 1185.9 1590.63 1163.59 1590.34 1124.68 L 1590.18 1072.67 C 1590.19 1005.31 1590.79 936.913 1589.96 869.617 L 1586.2 869.971 C 1588.7 864.636 1591.19 859.675 1592.95 854.043 z" fill="rgb(231,228,219)" transform="translate(0,0)"></path>
<path d="M 972.244 1136.52 C 979.967 1130.75 978.711 1134.61 978.17 1142 C 969.934 1165.51 964.278 1188.55 981.809 1209.29 L 923.066 1209.7 C 953.871 1184.98 955.903 1171.61 972.244 1136.52 z" fill="rgb(231,228,219)" transform="translate(0,0)"></path>
<path d="M 1586.2 869.971 L 1589.96 869.617 C 1559.11 922.756 1519.83 967.393 1481.63 1015.36 C 1477.37 1020.71 1455.67 1047.72 1452.47 1050.07 L 1450.74 1049.09 L 1515.57 968.909 C 1542 936.046 1565.63 906.795 1586.2 869.971 z" fill="rgb(220,216,205)" transform="translate(0,0)"></path>
<path d="M 469.246 1119.12 L 471.116 1118.26 C 474.118 1116.88 484.439 1106.88 485.176 1109.08 C 483.128 1112.64 474.062 1119.78 470.535 1121.92 C 470.106 1120.96 469.717 1120.07 469.246 1119.12 z" fill="rgb(220,216,205)" transform="translate(0,0)"></path>
<path d="M 446.039 1196.59 C 444.612 1197.49 432.31 1202.58 432.112 1200.05 C 433.389 1197.94 441.579 1196.18 444.513 1194.69 L 446.039 1196.59 z" fill="rgb(220,216,205)" transform="translate(0,0)"></path>
<path d="M 423.957 1152.31 C 430.669 1150.89 434.296 1150.44 440.873 1149.67 L 441.905 1149.54 L 444.316 1151.43 C 437.561 1153.72 431.286 1152.64 423.957 1152.31 z" fill="rgb(220,216,205)" transform="translate(0,0)"></path>
<path d="M 430.58 1041.56 C 429.455 1041.41 420.055 1040.84 421.295 1038.84 C 421.672 1038.23 436.657 1039.66 438.021 1039.8 C 435.762 1040.11 431.101 1039.64 430.58 1041.56 z" fill="rgb(220,216,205)" transform="translate(0,0)"></path>
<path d="M 470.134 1045.55 C 471.679 1044.68 476.387 1041.16 478.135 1042.59 C 477.828 1044.32 472.446 1047.02 470.829 1047.75 L 470.384 1047.95 L 470.134 1045.55 z" fill="rgb(220,216,205)" transform="translate(0,0)"></path>
<path d="M 457.566 729.997 C 456.978 729.849 456.387 729.711 455.794 729.583 C 449.23 728.666 457.613 726.763 459.47 726.597 L 457.566 729.997 z" fill="rgb(141,136,131)" transform="translate(0,0)"></path>
<metadata><recraft-signature>{"signed_by": "recraft", "signature_b64": "X3u88UQEz4UmNxYyanHSdXqkcO7QnoTd31z0q2HzDkRn0Yft+gxrHC3TwSYHrf/5rT717JyYZrqRHxP7ZkmMCQ==", "signing_algo": "Ed25519", "generation_timestamp": 1772801805, "identifier": "1d541900-841c-44e4-8631-401bb8de18b7"}</recraft-signature></metadata></svg>